<?xml version="1.0" encoding="UTF-8"?>
<svg id="Layer_1" xmlns="http://www.w3.org/2000/svg" xmlns:x="http://ns.adobe.com/Extensibility/1.0/" version="1.1" viewBox="0 0 85.04 93.54">
  <!-- Generator: Adobe Illustrator 30.3.0, SVG Export Plug-In . SVG Version: 2.1.3 Build 182)  -->
  <path d="M43.71,16.44c-7.15-.3-14.01,2.17-19.17,7.09-5.17,4.92-8.05,11.52-8.05,18.61,0,5.81,1.89,11.32,5.56,15.95,3.18,4.04,5.36,7.88,6.76,11.91l.1.3v10.34c0,1.28.99,2.46,2.28,2.66.5,5.71,5.36,10.24,11.33,10.24s10.83-4.53,11.33-10.34c1.29-.2,2.28-1.28,2.28-2.66v-10.24l.1-.3c1.39-4.04,3.58-7.88,6.76-11.82,3.87-4.82,5.86-10.93,5.56-17.03-.7-13.29-11.52-24.12-24.84-24.72ZM50.67,71.39v6.5h-16.29v-6.5h16.29ZM42.52,88.13c-2.98,0-5.36-2.17-5.86-4.92h11.72c-.5,2.86-2.88,4.92-5.86,4.92ZM58.61,54.75c-2.98,3.74-5.17,7.38-6.76,11.23h-18.68c-1.59-3.74-3.78-7.48-6.76-11.23-2.88-3.64-4.37-7.98-4.37-12.6,0-5.61,2.28-10.83,6.36-14.77,4.07-3.84,9.44-5.91,15.2-5.61,10.53.49,19.07,9.06,19.57,19.4.1,5.02-1.49,9.75-4.57,13.59Z"/>
  <path d="M42.52,10.34c1.49,0,2.68-1.18,2.68-2.66V2.66c0-1.48-1.19-2.66-2.68-2.66s-2.68,1.18-2.68,2.66v5.02c0,1.48,1.19,2.66,2.68,2.66Z"/>
  <path d="M22.75,13.69c.5.89,1.39,1.38,2.38,1.38.5,0,.89-.1,1.39-.39,1.29-.79,1.79-2.36.99-3.64l-2.48-4.33c-.79-1.28-2.38-1.77-3.68-.98-1.29.79-1.79,2.36-.99,3.64l2.38,4.33Z"/>
  <path d="M13.71,22.55l-4.37-2.46c-1.29-.79-2.98-.3-3.68.98-.79,1.28-.3,2.95.99,3.64l4.37,2.46c.4.2.89.39,1.39.39.89,0,1.89-.49,2.38-1.38.7-1.18.2-2.86-1.09-3.64Z"/>
  <path d="M10.43,42.14c0-1.48-1.19-2.66-2.68-2.66H2.68c-1.49,0-2.68,1.18-2.68,2.66s1.19,2.66,2.68,2.66h5.07c1.49.1,2.68-1.18,2.68-2.66Z"/>
  <path d="M11.03,57.11l-4.37,2.46c-1.29.79-1.79,2.36-.99,3.64.5.89,1.39,1.38,2.38,1.38.5,0,.89-.1,1.39-.39l4.37-2.46c1.29-.79,1.79-2.36.99-3.64-.79-1.28-2.48-1.77-3.78-.98Z"/>
  <path d="M78.38,59.57l-4.37-2.46c-1.29-.79-2.98-.3-3.68.98-.79,1.28-.3,2.95.99,3.64l4.37,2.46c.4.2.89.39,1.39.39.89,0,1.89-.49,2.38-1.38.6-1.28.2-2.86-1.09-3.64Z"/>
  <path d="M82.36,39.49h-5.07c-1.49,0-2.68,1.18-2.68,2.66s1.19,2.66,2.68,2.66h5.07c1.49,0,2.68-1.18,2.68-2.66,0-1.48-1.19-2.66-2.68-2.66Z"/>
  <path d="M72.62,27.57c.5,0,.89-.1,1.39-.39l4.37-2.46c1.29-.79,1.79-2.36.99-3.64-.79-1.28-2.38-1.77-3.68-.98l-4.37,2.46c-1.29.79-1.79,2.36-.99,3.64.5.98,1.39,1.38,2.28,1.38Z"/>
  <path d="M58.51,14.67c.4.2.89.39,1.39.39.89,0,1.89-.49,2.38-1.38l2.48-4.33c.79-1.28.3-2.95-.99-3.64-1.29-.79-2.98-.3-3.68.98l-2.48,4.33c-.79,1.18-.4,2.86.89,3.64Z"/>
</svg>